<svg width="50" height="50" fill="none" xmlns="http://www.w3.org/2000/svg"><path d="M37.12 10.89H12.88a1.99 1.99 0 00-1.99 1.99v24.24a1.99 1.99 0 001.99 1.99h24.24c1.1 0 1.99-.891 1.99-1.99V12.88c0-1.1-.89-1.99-1.99-1.99z" fill="#6F2CFF"/><path d="M39.11 25h4.01m-4.01 6.56h4.01m-4.01-13.12h4.01M6.88 25h4.01m-4.01 6.56h4.01M6.88 18.44h4.01M25 10.89V6.88m6.16 4.01V6.88m-12.32 4.01V6.88M25 43.12v-4.01m6.16 4.01v-4.01m-12.32 4.01v-4.01" stroke="#6F2CFF" stroke-width="2.78" stroke-miterlimit="10" stroke-linecap="round"/><path d="M26.88 23.11h-3.77v3.77h3.77v-3.77zm6.16 0h-3.77v3.77h3.77v-3.77zm-12.32 0h-3.77v3.77h3.77v-3.77zm6.16-6.55h-3.77v3.77h3.77v-3.77zm6.16 0h-3.77v3.77h3.77v-3.77zm-12.32 0h-3.77v3.77h3.77v-3.77zm6.16 13.11h-3.77v3.77h3.77v-3.77zm6.16 0h-3.77v3.77h3.77v-3.77zm-12.32 0h-3.77v3.77h3.77v-3.77z" fill="#D15187"/></svg>