<svg width="50" height="50" fill="none" xmlns="http://www.w3.org/2000/svg"><path d="M14.06 22.67a9.401 9.401 0 001.11 4.44 11.61 11.61 0 0011.08-11.59 11.87 11.87 0 00-.18-2 9.46 9.46 0 00-12 9.14l-.01.01z" fill="#A445BB"/><path d="M23.55 9h.67a11.6 11.6 0 10-13.9 17.32 13.93 13.93 0 01-.49-3.62A13.74 13.74 0 0123.55 9z" fill="#D15187"/><path d="M24.22 9h-.67A13.74 13.74 0 009.83 22.67a13.93 13.93 0 00.49 3.62 13.69 13.69 0 0021.3 7.44l12 12a1.24 1.24 0 001.75 0l1.24-1.24a1.24 1.24 0 000-1.75l-12-12A13.69 13.69 0 0024.22 9zm-.67 23.19a9.49 9.49 0 01-8.38-5 9.399 9.399 0 01-1.11-4.44 9.461 9.461 0 0112-9.14 9.48 9.48 0 01-2.52 18.63l.01-.05z" fill="#6F00FF"/></svg>