<svg width="50" height="50" fill="none" xmlns="http://www.w3.org/2000/svg"><path d="M33 26.07L36.9 30a1.069 1.069 0 001.52 0l2.76-2.76V13a1.07 1.07 0 00-1.83-.76L28.47 23.15a1.07 1.07 0 01-1.52 0l-6.33-6.33a1.072 1.072 0 00-1.52 0L3.36 32.69a1.07 1.07 0 00.76 1.82h19l8.37-8.44a1.07 1.07 0 011.51 0z" fill="#6F00FF"/><path d="M45.12 23.26l-3.94 3.95v6.22a1.07 1.07 0 01-1.07 1.07h-17l-1.69 1.71a1.07 1.07 0 00.76 1.83h23.7A1.07 1.07 0 0047 37V24a1.07 1.07 0 00-1.88-.74z" fill="#D15187"/><path d="M41.18 33.43v-6.22L38.42 30a1.07 1.07 0 01-1.52 0L33 26.07a1.07 1.07 0 00-1.52 0l-8.37 8.44h17a1.07 1.07 0 001.07-1.08z" fill="#A445BB"/></svg>