<svg width="50" height="50" fill="none" xmlns="http://www.w3.org/2000/svg"><path d="M32.85 24.63a9.51 9.51 0 01-15.7 0 13.57 13.57 0 00-5.77 11.12v11.13h27.24V35.75a13.569 13.569 0 00-5.77-11.12z" fill="#6F00FF"/><path d="M32.85 24.63a9.51 9.51 0 10-15.7 0 13.57 13.57 0 0115.7 0z" fill="#D15187"/><path d="M25 28.77a9.51 9.51 0 007.85-4.14 13.57 13.57 0 00-15.7 0A9.51 9.51 0 0025 28.77z" fill="#A445BB"/><path d="M7.75 18.79l4.09.46-4.09.47v-.93zM25.46 2.01L25 6.09l-.46-4.08h.92zm16.79 17.71l-4.09-.47 4.09-.46v.93z" fill="#6F2CFF"/></svg>