<svg width="50" height="50" fill="none" xmlns="http://www.w3.org/2000/svg"><path d="M25 42.78c.05-2.52.59-11.07 5.66-18 .25-.35.51-.68.77-1C30.93 14.1 25 6.48 25 6.48s-5.93 7.62-6.43 17.26c.26.32.52.65.77 1C24.41 31.71 25 40.26 25 42.78z" fill="#6F2CFF"/><path d="M18.57 23.74C12.51 16.23 3.23 13.55 3.23 13.55s-.36 10.51 5.65 18.79C14.89 40.62 25 43.52 25 43.52S18.54 35.23 18.54 25c0-.42.01-.84.03-1.26z" fill="#D15187"/><path d="M25 42.78c-.05-2.52-.59-11.07-5.66-18-.25-.35-.51-.68-.77-1v1.26C18.54 35.23 25 43.52 25 43.52v-.74z" fill="#A445BB"/><path d="M46.77 13.55s-9.28 2.68-15.34 10.19V25C31.46 35.23 25 43.52 25 43.52s10.1-2.91 16.12-11.18c6.02-8.27 5.65-18.79 5.65-18.79z" fill="#D15187"/><path d="M31.43 23.74c-.26.32-.52.65-.77 1-5.07 7-5.61 15.52-5.66 18v.74s6.46-8.25 6.46-18.48c0-.42-.01-.84-.03-1.26z" fill="#A445BB"/></svg>