<svg width="50" height="50" fill="none" xmlns="http://www.w3.org/2000/svg"><path d="M46.57 9.05L26.05 2.68a2.12 2.12 0 00-2.66 1.4l-4.85 15.58 6.43-1a2.13 2.13 0 012.43 1.78l1.6 10.1 10 3.1a2.129 2.129 0 002.67-1.4L48 11.72a2.12 2.12 0 00-1.43-2.67z" fill="#D15187"/><path d="M17 24.6l1.53-4.94L3.73 22A2.14 2.14 0 002 24.38l3.23 21.24a2.13 2.13 0 002.43 1.77l21.24-3.27a2.13 2.13 0 001.78-2.43L29 30.54l-10.59-3.28A2.12 2.12 0 0117 24.6z" fill="#6F2CFF"/><path d="M25 18.67l-6.43 1L17 24.6a2.12 2.12 0 001.4 2.66L29 30.54l-1.6-10.09a2.13 2.13 0 00-2.4-1.78z" fill="#A445BB"/><path d="M32.48 20.49a2.15 2.15 0 100-4.3 2.15 2.15 0 000 4.3zm-4.24-8.05a2.15 2.15 0 100-4.3 2.15 2.15 0 000 4.3zm12.29 3.82a2.15 2.15 0 100-4.3 2.15 2.15 0 000 4.3zm-16.11 8.47a2.15 2.15 0 100-4.3 2.15 2.15 0 000 4.3zm12.29 3.82a2.15 2.15 0 100-4.3 2.15 2.15 0 000 4.3zm-20.32 6.81a2.15 2.15 0 100-4.3 2.15 2.15 0 000 4.3zm-7.35-5.38a2.15 2.15 0 100-4.3 2.15 2.15 0 000 4.3zm14.69 10.75a2.15 2.15 0 100-4.3 2.15 2.15 0 000 4.3z" fill="#fff"/></svg>