<svg width="19" height="16" fill="none" xmlns="http://www.w3.org/2000/svg"><g clip-path="url(#clip0)"><path d="M5.85 15.04c7.02 0 10.86-5.79 10.86-10.8l-.01-.5a7.9 7.9 0 001.91-1.96c-.7.3-1.44.51-2.2.59.8-.47 1.4-1.22 1.68-2.1-.74.44-1.57.76-2.42.93a3.83 3.83 0 00-5.4-.17 3.79 3.79 0 00-1.1 3.63A10.87 10.87 0 011.3.7a3.77 3.77 0 001.18 5.06 3.77 3.77 0 01-1.74-.47v.04a3.82 3.82 0 003.07 3.73c-.56.15-1.15.17-1.73.06a3.85 3.85 0 003.57 2.64A7.73 7.73 0 010 13.33a10.8 10.8 0 005.85 1.71z" fill="#1C1C1C"/></g><defs><clipPath id="clip0"><path fill="#fff" d="M0 0h19v16H0z"/></clipPath></defs></svg>