<svg width="22" height="16" fill="none" xmlns="http://www.w3.org/2000/svg"><g clip-path="url(#clip0)"><path d="M22.37 7.71v1.62c0 1.73-.22 3.46-.22 3.46s-.2 1.47-.84 2.12c-.82.85-1.73.86-2.15.91-2.99.22-7.48.22-7.48.22s-5.55-.05-7.26-.21c-.48-.09-1.54-.07-2.36-.92-.64-.65-.85-2.12-.85-2.12S1 11.06 1 9.33V7.71c0-1.73.21-3.47.21-3.47s.21-1.47.85-2.12c.82-.85 1.73-.85 2.14-.9C7.19 1 11.68 1 11.68 1h.01s4.48 0 7.47.22c.42.05 1.33.05 2.15.9.64.65.84 2.12.84 2.12s.22 1.74.22 3.47zm-6.33.82L9.71 5.75v5.54l6.33-2.76z" fill="#1C1C1C"/></g><defs><clipPath id="clip0"><path fill="#fff" d="M0 0h22v16H0z"/></clipPath></defs></svg>